PathFileType	4	(X/Y/Z)	C:/Users/beibeiliu/ov580/test_trc/User3\sequence.48_training_dense_right.trc
DataRate	CameraRate	NumFrames	NumMarkers	Units	OrigDataRate	OrigDataStartFrame	OrigNumFrames
120	120	18	19	mm	120	54	188
Frame#	Time	ThumbCMC			ThumbMCP			ThumbIP			ThumbTip			IndexMCP			IndexPIP			IndexTip			MiddleMCP			MiddlePIP			MiddleTip			RingMCP			RingPIP			RingTip			PinkyMCP			PinkyPIP			PinkyTip			BackHand1			BackHand2			BackHand3	
		X0	Y0	Z0	X1	Y1	Z1	X2	Y2	Z2	X3	Y3	Z3	X4	Y4	Z4	X5	Y5	Z5	X6	Y6	Z6	X7	Y7	Z7	X8	Y8	Z8	X9	Y9	Z9	X10	Y10	Z10	X11	Y11	Z11	X12	Y12	Z12	X13	Y13	Z13	X14	Y14	Z14	X15	Y15	Z15	X16	Y16	Z16	X17	Y17	Z17	X18	Y18	Z18	
53	0.441667	126.727	37.0491	56.3978	105.263	27.7495	25.9496	100.597	16.6867	-0.218638	103.827	4.12173	-26.2467	145.195	60.6998	-13.1007	131.44	58.7082	-38.2674	112.967	45.6589	-56.04	160.957	49.6843	-22.2892	145.026	43.6579	-53.098	122.563	25.623	-68.2357	169.282	24.165	-23.8242	150.721	12.8709	-42.1722	120.962	-3.86792	-34.2398	180.735	5.80085	-10.1482	169.341	-2.27215	-32.8052	143.541	-9.21878	-40.1275	189.134	25.8332	35.0584	189.187	19.0827	62.9998	167.102	49.0106	53.8561	
54	0.45	131.592	36.3914	55.8905	110.528	28.7441	28.8708	100.763	20.2053	-1.31837	98.5689	8.34809	-19.7109	149.863	57.615	-18.4298	132.807	56.5625	-43.0927	116.712	46.4547	-58.1524	163.356	44.7103	-25.6975	144.206	38.364	-52.7246	118.255	23.6799	-63.0701	169.661	23.2527	-23.1187	153.833	10.2008	-42.9119	125.762	-3.95847	-38.5099	181.92	3.54789	-12.6779	168.933	-3.09716	-34.2283	142.003	-13.8796	-42.3788	188.318	24.1282	32.0552	191.174	14.2678	62.857	171.232	47.7441	50.499	
55	0.458333	134.897	38.482	54.4232	114.536	33.0897	25.1509	101.236	25.9088	1.37471	100.813	12.8911	-22.4448	154.474	56.8506	-17.4906	141.979	53.0907	-43.1622	125.21	45.6464	-60.0521	165.169	39.3876	-25.4829	144.253	32.9892	-49.2693	112.642	12.5106	-54.5376	175.395	18.193	-20.2199	151.292	12.8622	-43.1624	126.237	-6.27921	-36.8635	183.377	0.759758	-7.84906	173.324	-7.05953	-34.16	148.808	-10.0202	-44.3205	191.944	20.4932	32.2183	190.872	12.1401	63.8048	172.443	47.598	51.0453	
56	0.466667	138.708	40.8607	54.1711	116.688	36.1943	25.2931	107.653	29.239	-1.3436	103.186	17.525	-22.343	161.907	49.6028	-18.5982	150	50.6973	-41.7972	131.849	42.5166	-63.824	166.861	32.9212	-24.7213	145.309	24.9503	-45.9558	110.417	10.1966	-43.825	175.426	16.0446	-18.3244	155.368	4.48965	-41.9127	127.635	-7.16359	-31.4967	182.971	-2.75854	-6.12467	175.749	-11.9181	-31.5914	149.491	-17.7795	-41.7207	192.067	12.9757	35.4784	192.333	9.11564	64.1798	177.939	41.298	50.1934	
57	0.475	141.431	40.9101	54.4895	120.187	39.063	22.4205	108.008	31.6719	-5.64686	105.482	18.7946	-19.854	165.877	43.4857	-18.364	155.882	39.544	-45.5546	137.366	32.3136	-66.0956	166.795	21.0594	-25.7094	139.888	17.2288	-46.9285	107.665	5.78234	-39.1967	174.685	2.80408	-18.2914	152.713	-2.67924	-40.2719	121.406	-5.26445	-26.0271	181.063	-15.8174	-6.6175	170.517	-16.9468	-29.2783	140.442	-20.8356	-40.0388	190.255	7.77384	35.6542	191.017	1.48811	61.4557	181.201	34.3454	48.838	
58	0.483333	145.81	39.3806	50.4371	122.42	40.4871	24.9715	108.972	35.9275	-1.8752	105.025	18.6371	-21.3974	167.406	32.1527	-19.977	155.809	33.1003	-49.3779	137.529	27.6	-67.095	166.506	12.3931	-25.2844	137.882	6.93012	-47.7797	101.088	6.68436	-36.5834	169.917	-2.95473	-19.0391	144.931	-12.7108	-37.8314	117.666	-9.76005	-23.7536	172.772	-25.8765	-4.15779	159.612	-29.3342	-28.0903	130.702	-28.4849	-34.3108	186.276	-5.04049	35.88	188.061	-6.57705	66.2018	182.866	27.5508	48.717	
59	0.491667	149.099	36.7554	50.1742	125.765	44.3417	23.4445	114.602	33.9207	-3.39646	104.441	23.0943	-20.0004	168.123	28.373	-22.4347	155.801	24.3697	-49.0915	132.556	18.8738	-66.1149	164.598	4.4494	-29.678	138.388	2.94138	-49.7947	104.35	3.91574	-38.956	166.313	-14.8584	-20.0895	140.919	-19.227	-38.8363	113.016	-14.9296	-23.2555	164.23	-34.5721	-1.8874	147.852	-39.2241	-24.4499	121.634	-30.2116	-25.5681	183.356	-10.8654	30.3767	186.123	-12.361	64.7827	184.848	19.9881	47.1784	
60	0.5	151.754	38.9934	51.3078	131.672	40.9448	24.3973	115.422	42.0552	-1.47796	102.348	31.1332	-21.7191	168.612	19.4475	-25.8747	149.981	21.479	-52.467	122.591	21.3083	-62.7779	166.936	0.873913	-27.0274	141.699	2.52669	-50.4636	101.658	1.37771	-36.1723	162.2	-21.1842	-22.3874	138.286	-22.474	-37.6893	108.718	-15.3005	-23.5193	156.736	-40.3619	-1.37787	137.577	-36.9541	-23.392	111.47	-32.7434	-19.5454	182.957	-18.2401	31.7049	185.313	-17.7167	62.8515	186.491	15.1001	42.1221	
61	0.508333	157.262	36.0331	47.4765	135.325	46.1885	25.6588	119.748	46.9977	-2.04587	108.869	34.0013	-18.9128	169.259	17.4271	-22.1774	146.481	15.1606	-49.1278	119.862	22.8973	-52.4767	165.846	-7.11825	-25.2419	140.728	-0.0171025	-50.9215	105.482	6.54564	-39.0634	161.185	-21.4216	-19.1442	139.511	-23.1096	-38.3513	108.315	-15.1092	-26.9156	153.103	-39.6126	-3.69355	133.782	-41.9447	-19.2457	105.394	-24.5691	-16.7802	179.868	-22.7636	31.6163	183.792	-21.9365	62.5562	188.237	13.3951	43.1321	
62	0.516667	164.384	35.2152	48.4174	144.546	43.1738	23.7023	130.222	45.4818	-6.30424	117.252	37.2116	-22.9032	168.985	9.80419	-21.4583	147.341	12.2114	-44.3821	116.723	25.4862	-44.3857	166.873	-11.3056	-30.1776	144.274	-3.19262	-50.5697	106.201	5.40846	-40.3754	160.014	-28.72	-15.6372	136.717	-22.8896	-39.4007	106.202	-11.2375	-27.4862	148.99	-44.932	1.22095	129.248	-39.8565	-19.3672	106.271	-21.5298	-16.5372	179.679	-25.9668	35.7808	183.071	-27.6369	66.3743	189.143	5.57938	42.4625	
63	0.525	172.201	32.0531	46.1183	155.705	41.4638	20.7295	143.187	46.915	-6.46745	126.717	37.3201	-27.0183	171.102	2.91025	-22.0853	149.772	14.6701	-47.3151	120.274	24.2736	-40.5854	167.129	-17.1569	-26.3231	148.549	-9.33917	-49.75	108.902	6.25412	-45.5741	157.624	-33.2619	-13.5054	136.819	-29.251	-36.6029	110.055	-12.7975	-32.1978	143.597	-45.9324	3.31516	128.525	-40.642	-16.2707	104.046	-23.0329	-18.8211	178.519	-33.0201	33.7672	180.688	-30.48	67.7663	192.531	0.671248	42.4206	
64	0.533333	179.536	27.7539	51.9049	166.436	41.4851	18.5586	153.924	48.0943	-4.39547	137.177	37.9352	-25.5257	179.581	0.941589	-21.9432	156.983	11.3364	-49.3355	130.402	24.6426	-46.5813	170.437	-18.5109	-26.2111	149.63	-13.4021	-50.2422	119.523	9.1369	-52.9706	155.895	-34.7562	-13.1361	132.333	-29.1402	-37.9358	112.526	-9.85956	-36.5996	140.067	-44.3802	3.65922	121.364	-39.3924	-15.8416	100.441	-21.6075	-18.8455	174.137	-37.742	35.0502	178.632	-35.5757	67.888	193.811	-7.71093	45.5645	
65	0.541667	185.805	25.0977	49.8197	171.879	37.1717	22.708	162.277	47.2508	-3.07125	144.827	43.2568	-21.4549	183.9	-5.06396	-20.5722	165.362	1.03613	-49.5973	144.558	17.1959	-56.8684	169.66	-27.5979	-27.0166	154.96	-18.5318	-50.5524	128.822	4.61168	-59.7477	155.08	-34.4341	-14.9418	135.822	-26.9553	-36.5725	112.975	-4.18241	-36.87	136.858	-43.9298	3.19434	115.975	-36.1584	-13.8304	102.554	-16.628	-17.3133	173.816	-39.9948	39.0464	178.195	-35.9355	69.7886	196.404	-15.7843	43.7478	
66	0.55	190.302	22.2545	49.2406	176.484	37.2254	25.2444	166.785	49.3517	-3.69138	149.679	47.8121	-19.9173	185.173	-10.4097	-22.8399	179.451	-3.12277	-50.1427	156.585	12.281	-68.5726	171.957	-30.4551	-22.2756	158.795	-24.999	-51.6396	131.241	-4.45307	-68.4628	149.753	-37.3224	-15.4452	128.627	-25.5184	-34.6955	111.422	-2.99518	-33.9751	134.09	-44.4245	5.46156	116.95	-36.2895	-9.93463	98.5489	-11.0538	-11.2864	171.428	-45.4791	36.3706	175.687	-40.6155	67.8353	196.519	-18.101	46.5258	
67	0.558333	192.3	20.176	49.5051	177.022	36.1539	25.6677	165.221	47.348	-0.190902	151.728	55.2308	-16.4075	186.69	-13.2733	-22.1081	183.42	-5.69832	-50.6223	168.024	1.6837	-73.177	172.145	-32.1202	-26.0052	160.08	-31.5201	-50.438	138.82	-18.0874	-73.9185	146.731	-38.6481	-9.0086	126.726	-26.1744	-29.3467	106.895	-1.45334	-26.8372	129.26	-46.3228	9.18831	111.649	-30.6724	-9.10332	98.6694	-8.45542	-5.27251	172.353	-45.9775	39.5925	176.199	-45.5296	71.3561	198.627	-20.4621	43.2185	
68	0.566667	190.533	17.4689	51.9124	175.454	33.0484	30.5354	164.861	51.5504	4.62145	149.916	56.1139	-12.8906	185.903	-13.0531	-18.2615	182.92	-8.47183	-46.5132	173.577	4.132	-70.492	168.659	-36.1876	-24.6129	158.152	-31.768	-48.3942	138.299	-19.3216	-74.1352	142.449	-38.9434	-8.26291	123.605	-22.8405	-24.6812	104.247	4.9518	-18.3908	128.789	-45.6592	9.18562	112.829	-32.5236	-2.86347	102.266	-2.43319	2.38519	173.958	-46.9852	40.2006	176.914	-47.5351	68.4966	195.366	-25.7843	45.1145	
69	0.575	188.212	11.8213	50.8351	175.204	30.4096	30.9426	162.282	44.954	3.12277	146.036	48.2316	-10.0988	189.288	-11.2675	-20.7669	183.913	-4.26659	-47.3279	168.857	9.61583	-66.5915	171.786	-34.5376	-21.4297	160.313	-28.2737	-48.9721	132.267	-13.9077	-67.4121	144.839	-38.3018	-6.25483	125.101	-21.2464	-22.1312	104.899	3.26332	-7.5192	130.936	-43.5597	7.42397	109.93	-30.8666	0.700718	105.203	-4.27212	11.3676	171.856	-50.6738	39.0224	180.709	-45.8751	71.6729	198.003	-22.9062	49.6885	
70	0.583333	189.141	11.8999	54.5446	174.471	29.2619	28.8954	162.15	43.498	3.00211	141.561	38.9833	-12.6838	188.23	-14.8709	-21.1037	182.31	-2.75979	-47.5464	159.553	18.9715	-58.8379	171.696	-37.4721	-19.0354	162.624	-26.6387	-47.4841	131.865	-6.5286	-55.7361	148.516	-36.245	-6.98745	126.904	-20.2248	-22.5375	114.93	6.14669	-4.31747	133.118	-43.2196	6.52475	113.303	-23.8171	-0.00560398	113.195	-2.09001	13.4222	170.917	-49.5095	39.0136	178.002	-47.2797	68.4529	198.819	-26.7548	48.0568	
